<?xml version="1.0" encoding="UTF-8"?><svg xmlns="http://www.w3.org/2000/svg" xmlns:svg="http://www.w3.org/2000/svg" version="1.2" xml:space="preserve" width="148" height="144" viewBox="0 0 148 144" baseProfile="tiny-ps"><title>Hibiki AI</title><defs id="defs6"></defs><g id="g8" transform="matrix(1.3333333,0,0,-1.3333333,0,144)"><g id="g10" transform="matrix(0.06181895,0,0,0.05294377,21.175598,25.550095)"><path d="m 50.6211,523.75 c -23.4297,0 -35.1523,12.5 -35.1523,37.5 0,12.5 5.6601,21.871 17.0312,28.129 11.3281,6.242 25.9805,11.48 43.9102,15.781 18,4.25 37.5388,9.879 58.5898,16.871 21.129,7.071 41.449,17.66 60.941,31.719 19.571,14.059 35.969,33.98 49.219,59.84 -17.191,-3.121 -39.301,-7.809 -66.25,-14.059 -26.879,-6.25 -53.441,-11.722 -79.6912,-16.41 -26.168,-4.68 -47.418,-7.031 -63.75,-7.031 -19.6094,0 -29.37896,10.941 -29.37896,32.82 0,13.199 4.46096,21.949 13.44146,26.25 9.0585,4.371 19.6093,6.91 31.7187,7.649 12.0703,0.82 22.4219,1.25 31.0898,1.25 L 135,807.34 c -3.121,3.129 -11.719,9.93 -25.781,20.469 -14.0588,10.511 -29.1409,22.582 -45.1604,36.25 -15.9375,13.75 -30,26.882 -42.1797,39.382 C 9.76953,915.941 3.75,925.66 3.75,932.66 c 0,21.871 11.7188,32.809 35.1602,32.809 7.8086,0 15.9687,-2.93 24.5312,-8.75 8.6289,-5.86 15.6992,-10.739 21.25,-14.688 3.1172,4.688 8.5899,14.258 16.3986,28.75 7.82,14.449 16.961,29.879 27.5,46.249 10.512,16.45 21.25,30.7 32.191,42.81 10.938,12.07 20.309,18.13 28.129,18.13 10.93,0 19.879,-2.58 26.871,-7.66 7.071,-5 10.629,-13.4 10.629,-25.15 0,-6.25 -4.34,-16.06 -12.969,-29.38 -8.562,-13.24 -18.711,-27.46 -30.472,-42.659 -11.68,-15.23 -22.77,-29.293 -33.278,-42.18 -10.55,-12.929 -18.132,-21.722 -22.812,-26.41 L 178.441,860 c 3.118,4.691 8.75,13.051 16.868,25.16 8.211,12.18 17.582,25.07 28.132,38.75 10.618,13.629 21.168,25.352 31.719,35.149 10.5,9.769 19.68,14.691 27.5,14.691 23.43,0 35.149,-10.941 35.149,-32.809 0,-5.55 -5.469,-15.55 -16.399,-30 -10.941,-14.382 -24.461,-30.39 -40.469,-47.972 C 245,845.352 228.789,828.16 212.34,811.41 c -16.36,-16.801 -30,-30.629 -40.93,-41.57 -10.941,-10.93 -16.84,-16.828 -17.66,-17.649 l 112.5,16.399 c 3.129,12.5 6.602,25.98 10.469,40.469 3.941,14.461 14.531,21.722 31.722,21.722 21.868,0 32.809,-10.582 32.809,-31.722 0,-35.11 -9.18,-68.508 -27.5,-100.149 C 295.391,667.23 272.191,639.262 244.059,615 215.941,590.82 186.25,572.109 155,558.91 147.891,555.781 137.539,551.449 123.91,545.941 110.23,540.512 96.5586,535.469 82.8086,530.781 69.1406,526.09 58.4414,523.75 50.6211,523.75 Z m 277.8199,47.969 c -21.882,0 -32.82,11.722 -32.82,35.16 0,9.371 3.91,16.75 11.719,22.18 7.82,5.511 16.57,9.613 26.25,12.351 9.769,2.809 18.211,4.57 25.32,5.309 v 322.34 c 0,55.391 27.692,83.131 83.121,83.131 H 621.41 c 29.68,0 50.93,-6.68 63.75,-20 12.891,-13.24 19.371,-34.299 19.371,-63.131 v -131.25 c 0,-50.86 -26.949,-76.25 -80.781,-76.25 H 430.309 V 658.441 L 585,690.16 c -3.871,3.82 -8.91,9.449 -15.16,16.871 -6.25,7.5 -9.371,13.949 -9.371,19.379 0,10.93 3.121,18.32 9.371,22.18 6.25,3.949 14.07,5.941 23.441,5.941 6.25,0 17.188,-6.48 32.809,-19.371 15.629,-12.82 31.801,-27.82 48.601,-45 16.758,-17.191 31.168,-33.25 43.278,-48.129 12.191,-14.801 18.281,-24.179 18.281,-28.121 0,-23.441 -12.5,-35.16 -37.5,-35.16 -7.809,0 -16.84,4.449 -27.031,13.441 -10.117,9.059 -19.489,19.219 -28.129,30.469 -8.551,11.32 -15.149,19.762 -19.84,25.309 C 583.121,637.73 542.852,626.762 502.969,615 463.16,603.32 422.539,592.809 381.09,583.441 c -1.559,0 -6.481,-1.019 -14.68,-2.972 -8.129,-1.879 -16.332,-3.828 -24.531,-5.778 -8.25,-1.992 -12.738,-2.972 -13.438,-2.972 z m 466.399,-19.84 c -14.059,0 -24.219,4.062 -30.461,12.18 C 758.121,572.27 755,583.051 755,596.41 v 364.371 c 0,60.939 29.691,91.409 89.059,91.409 h 147.66 c 17.891,0 35.231,-3.13 52.031,-9.38 16.87,-6.25 25.31,-20.7 25.31,-43.279 0,-8.672 -4.53,-20.582 -13.59,-35.781 -8.99,-15.23 -19.14,-31.051 -30.47,-47.5 -11.25,-16.371 -21.41,-31.02 -30.469,-43.91 -8.98,-12.93 -13.441,-21.32 -13.441,-25.149 0,-7.113 5.039,-14.179 15.16,-21.25 10.2,-6.992 22.11,-15.742 35.78,-26.25 13.75,-10.55 25.67,-23.601 35.78,-39.222 10.2,-15.629 15.31,-35.16 15.31,-58.59 0,-28.129 -8.82,-51.219 -26.4,-69.219 -17.62,-17.93 -39.34,-31.211 -65.161,-39.851 C 965.82,584.262 940.859,580 916.719,580 c -28.129,0 -42.188,13.281 -42.188,39.84 0,14.07 4.059,23.601 12.188,28.601 8.203,5.079 18.359,8.2 30.472,9.368 12.188,1.25 24.289,2.812 36.399,4.691 12.07,1.949 22.23,6.641 30.469,14.059 8.211,7.5 12.351,19.851 12.351,37.031 0,10.941 -4.691,21.879 -14.07,32.82 -9.371,10.93 -19.961,21.871 -31.719,32.809 -11.672,10.941 -22.18,21.64 -31.562,32.191 -9.368,10.5 -14.059,20.86 -14.059,31.09 0,12.5 5.469,26.328 16.41,41.559 10.93,15.203 21.641,29.851 32.18,43.91 10.512,14.062 15.789,26.172 15.789,36.41 0,6.242 -2,10.312 -5.938,12.18 -3.871,1.961 -8.519,2.972 -13.91,2.972 H 869.84 c -10.231,0 -18.668,-3.359 -25.309,-10 -6.562,-6.562 -9.84,-15.312 -9.84,-26.25 V 596.41 c 0,-13.359 -3.132,-24.14 -9.382,-32.351 -6.25,-8.118 -16.399,-12.18 -30.469,-12.18 z M 430.309,933.91 h 202.812 v 28.121 c 0,18.75 -9.019,28.129 -27.031,28.129 H 457.34 c -18.039,0 -27.031,-9.379 -27.031,-28.129 z m 0,-113.75 H 606.09 c 18.012,0 27.031,8.981 27.031,27.031 v 28.118 H 430.309 Z M 40.1602,340.941 c -10.9414,0 -19.961,2.5 -27.0391,7.5 -6.99219,5.079 -10.46094,13.508 -10.46094,25.309 0,11.641 3.46875,20.039 10.46094,25.16 7.0781,5.07 16.0977,7.649 27.0391,7.649 H 301.41 L 286.25,469.84 H 138.59 c -10.231,0 -19.02,2.351 -26.399,7.039 -7.421,4.68 -11.101,12.851 -11.101,24.531 0,11.75 3.48,20.149 10.469,25.149 7.07,5.082 16.101,7.66 27.031,7.66 h 364.379 c 0,14.062 0.191,26.761 0.621,38.121 0.39,11.332 3.91,20.32 10.469,26.879 6.64,6.64 18.601,10 35.781,10 18.012,0 30.16,-3.36 36.41,-10 6.25,-6.559 9.531,-15.547 9.84,-26.879 0.39,-11.36 0.629,-24.059 0.629,-38.121 h 375 c 10.941,0 19.883,-2.578 26.871,-7.66 7.07,-5 10.63,-13.399 10.63,-25.149 0,-11.68 -3.56,-19.851 -10.63,-24.531 -6.988,-4.688 -15.93,-7.039 -26.871,-7.039 H 808.91 l -18.75,-63.281 h 278.9 c 10.94,0 19.89,-2.579 26.88,-7.649 7.07,-5.121 10.62,-13.519 10.62,-25.16 0,-11.801 -3.55,-20.23 -10.62,-25.309 -6.99,-5 -15.94,-7.5 -26.88,-7.5 z M 391.719,406.559 H 699.84 L 717.5,469.84 H 376.41 Z M 233.441,7.96875 c -26.562,0 -50.242,5.47265 -70.941,16.41015 -20.621,10.9297 -30.941,32.1016 -30.941,63.4297 V 213.121 c 0,30.508 10.511,51.02 31.562,61.57 21.141,10.508 44.578,15.778 70.32,15.778 h 643.438 c 27.262,0 51.09,-5.469 71.402,-16.41 20.309,-10.938 30.469,-32.028 30.469,-63.278 V 85.4688 C 978.75,54.9609 968.16,34.4492 947.031,23.9102 925.98,13.2813 902.578,7.96875 876.879,7.96875 Z M 224.059,177.969 H 886.25 v 21.09 c 0,21.882 -10.941,32.82 -32.809,32.82 H 256.879 c -21.879,0 -32.82,-10.938 -32.82,-32.82 z m 32.82,-111.4104 h 596.562 c 21.868,0 32.809,10.9805 32.809,32.9727 V 124.059 H 224.059 V 99.5313 c 0,-21.9922 10.941,-32.9727 32.82,-32.9727 z" id="path12" fill="#0043ce" fill-opacity="1" fill-rule="nonzero" stroke="none"></path></g></g></svg>
